<svg xmlns="http://www.w3.org/2000/svg" version="1.1" width="512px" height="512px" style="shape-rendering:geometricPrecision; text-rendering:geometricPrecision; image-rendering:optimizeQuality; fill-rule:evenodd; clip-rule:evenodd" xmlns:xlink="http://www.w3.org/1999/xlink">
<g><path style="opacity:0.966" fill="#4f7c5b" d="M 233.5,-0.5 C 248.167,-0.5 262.833,-0.5 277.5,-0.5C 358.412,8.64743 422.245,46.3141 469,112.5C 493.028,149.421 507.195,189.754 511.5,233.5C 511.5,248.167 511.5,262.833 511.5,277.5C 502.353,358.412 464.686,422.245 398.5,469C 361.58,493.028 321.247,507.195 277.5,511.5C 262.833,511.5 248.167,511.5 233.5,511.5C 171.906,505.367 118.906,480.867 74.5,438C 68.2773,430.058 67.944,421.891 73.5,413.5C 81.6674,407.017 90.0008,406.851 98.5,413C 153.121,465.537 218.121,486.204 293.5,475C 373.206,458.921 429.373,413.754 462,339.5C 490.765,261.277 481.098,188.277 433,120.5C 372.655,47.7126 295.821,20.546 202.5,39C 134.672,57.1668 85.172,97.6668 54,160.5C 31.2644,211.392 26.7644,263.892 40.5,318C 40.1949,328.73 34.6949,334.23 24,334.5C 18.1502,334.575 13.4835,332.242 10,327.5C 4.6618,311.111 1.1618,294.444 -0.5,277.5C -0.5,263.167 -0.5,248.833 -0.5,234.5C 11.0952,136.773 60.7619,65.9395 148.5,22C 175.788,10.0626 204.121,2.5626 233.5,-0.5 Z"/></g>
<g><path style="opacity:0.98" fill="#507c5c" d="M 237.5,84.5 C 309.794,80.7274 365.294,109.061 404,169.5C 428.22,213.381 433.22,259.381 419,307.5C 394.185,375.974 345.685,415.474 273.5,426C 200.192,430.267 144.358,401.434 106,339.5C 82.6445,296.129 77.9778,250.796 92,203.5C 117.211,135.317 165.711,95.6499 237.5,84.5 Z"/></g>
<g><path style="opacity:1" fill="#ceef9d" d="M 240.5,117.5 C 299.672,114.333 344.839,137.666 376,187.5C 399.293,232.811 399.293,278.145 376,323.5C 344.863,373.488 299.696,396.654 240.5,393C 194.121,386.583 158.954,363.416 135,323.5C 111.687,278.155 111.687,232.822 135,187.5C 159.107,147.569 194.274,124.236 240.5,117.5 Z"/></g>
</svg>